# 3ds Max Wavefront OBJ Exporter v0.97b - (c)2007 guruware
# File Created: 08.09.2017 21:05:27

mtllib Bow.mtl

#
# object Box001
#

v  2337282.5000 621239.2500 -503868.5938
v  2263429.7500 621239.2500 -503868.6875
v  2263429.5000 621239.2500 -827531.2500
v  2337282.5000 621239.2500 -827531.1250
v  2263429.7500 653650.3750 -503868.5938
v  2337282.5000 653650.3750 -503868.6875
v  2337282.5000 653650.3750 -827531.2500
v  2263429.5000 653650.3750 -827531.1250
v  1483744.0000 621239.2500 -1816038.2500
v  1482110.0000 621239.2500 -1816038.2500
v  1482110.0000 653650.3750 -1816038.2500
v  1483744.0000 653650.3750 -1816038.2500
v  1482346.5000 621239.2500 484638.7500
v  1483508.1250 621239.2500 484638.7500
v  1483508.1250 653650.3750 484638.7500
v  1482346.5000 653650.3750 484638.7500
v  1892130.2500 621239.2500 210262.6875
v  1941068.3750 621239.2500 210262.8125
v  2153831.5000 621239.2500 -180206.2500
v  2227684.2500 621239.2500 -180206.1563
v  1941068.1250 621239.2500 -1541662.5000
v  1892130.0000 621239.2500 -1541662.5000
v  2227684.2500 621239.2500 -1151193.5000
v  2153831.2500 621239.2500 -1151193.6250
v  1941068.3750 653650.3750 210262.6875
v  1892130.2500 653650.3750 210262.8125
v  2227684.2500 653650.3750 -180206.2813
v  2153831.5000 653650.3750 -180206.1250
v  1892130.0000 653650.3750 -1541662.5000
v  1941068.1250 653650.3750 -1541662.5000
v  2153831.2500 653650.3750 -1151193.5000
v  2227684.2500 653650.3750 -1151193.6250
# 32 vertices

vn 0.0000 -1.0000 -0.0000
vn 0.0000 1.0000 -0.0000
vn -0.0000 0.0000 -1.0000
vn -0.9867 0.0000 -0.1625
vn -0.9867 -0.0000 0.1625
vn 0.0000 0.0000 1.0000
vn 0.9867 -0.0000 -0.1625
vn 0.9867 0.0000 0.1625
vn -0.5564 0.0000 -0.8309
vn -0.7069 0.0000 -0.7073
vn -0.8967 0.0000 -0.4426
vn -0.5561 -0.0000 0.8311
vn -0.5561 0.0000 0.8311
vn -0.7069 -0.0000 0.7074
vn -0.8967 -0.0000 0.4426
vn 0.5145 -0.0000 -0.8575
vn 0.5145 0.0000 -0.8575
vn 0.6735 -0.0000 -0.7391
vn 0.8871 -0.0000 -0.4616
vn 0.5143 0.0000 0.8576
vn 0.6735 0.0000 0.7392
vn 0.8871 0.0000 0.4616
# 22 vertex normals

vt 1.0000 0.5714 0.0000
vt 0.0000 0.5714 0.0000
vt 0.0000 0.4286 0.0000
vt 1.0000 0.4286 0.0000
vt 0.0000 0.0000 0.0000
vt 1.0000 0.0000 0.0000
vt 1.0000 1.0000 0.0000
vt 0.0000 1.0000 0.0000
vt 0.5714 0.0000 0.0000
vt 0.5714 1.0000 0.0000
vt 0.4286 1.0000 0.0000
vt 0.4286 0.0000 0.0000
vt 0.0000 0.8571 0.0000
vt 1.0000 0.8571 0.0000
vt 0.0000 0.7143 0.0000
vt 1.0000 0.7143 0.0000
vt 1.0000 0.1429 0.0000
vt 0.0000 0.1429 0.0000
vt 1.0000 0.2857 0.0000
vt 0.0000 0.2857 0.0000
vt 0.8571 1.0000 0.0000
vt 0.8571 0.0000 0.0000
vt 0.7143 1.0000 0.0000
vt 0.7143 0.0000 0.0000
vt 0.1429 0.0000 0.0000
vt 0.1429 1.0000 0.0000
vt 0.2857 0.0000 0.0000
vt 0.2857 1.0000 0.0000
# 28 texture coords

g Box001
usemtl _crayfishdiffuse
s 2
f -32/-28/-22 -31/-27/-22 -30/-26/-22 -29/-25/-22 
s 4
f -28/-28/-21 -27/-27/-21 -26/-26/-21 -25/-25/-21 
s 8
f -24/-24/-20 -23/-23/-20 -22/-22/-20 -21/-21/-20 
s 16
f -31/-20/-19 -28/-19/-19 -25/-18/-18 -30/-17/-18 
s 32
f -20/-24/-17 -19/-23/-17 -18/-22/-17 -17/-21/-17 
s 64
f -29/-20/-16 -26/-19/-16 -27/-18/-15 -32/-17/-15 
s 2
f -19/-22/-22 -20/-21/-22 -16/-16/-22 -15/-15/-22 
f -15/-15/-22 -16/-16/-22 -14/-14/-22 -13/-13/-22 
f -13/-13/-22 -14/-14/-22 -31/-27/-22 -32/-28/-22 
f -23/-24/-22 -24/-23/-22 -12/-12/-22 -11/-11/-22 
f -11/-11/-22 -12/-12/-22 -10/-10/-22 -9/-9/-22 
f -9/-9/-22 -10/-10/-22 -29/-25/-22 -30/-26/-22 
s 4
f -17/-22/-21 -18/-21/-21 -8/-16/-21 -7/-15/-21 
f -7/-15/-21 -8/-16/-21 -6/-14/-21 -5/-13/-21 
f -5/-13/-21 -6/-14/-21 -27/-27/-21 -28/-28/-21 
f -21/-24/-21 -22/-23/-21 -4/-12/-21 -3/-11/-21 
f -3/-11/-21 -4/-12/-21 -2/-10/-21 -1/-9/-21 
f -1/-9/-21 -2/-10/-21 -25/-25/-21 -26/-26/-21 
s 16
f -20/-23/-14 -17/-22/-14 -7/-8/-13 -16/-7/-13 
f -16/-7/-13 -7/-8/-13 -5/-6/-12 -14/-5/-12 
f -14/-5/-12 -5/-6/-12 -28/-19/-19 -31/-20/-19 
f -22/-21/-11 -23/-24/-10 -11/-4/-9 -4/-3/-9 
f -4/-3/-9 -11/-4/-9 -9/-2/-8 -2/-1/-8 
f -2/-1/-8 -9/-2/-8 -30/-17/-18 -25/-18/-18 
s 64
f -24/-23/-7 -21/-22/-6 -3/-8/-5 -12/-7/-5 
f -12/-7/-5 -3/-8/-5 -1/-6/-4 -10/-5/-4 
f -10/-5/-4 -1/-6/-4 -26/-19/-16 -29/-20/-16 
f -18/-21/-3 -19/-24/-3 -15/-4/-2 -8/-3/-2 
f -8/-3/-2 -15/-4/-2 -13/-2/-1 -6/-1/-1 
f -6/-1/-1 -13/-2/-1 -32/-17/-15 -27/-18/-15 
# 30 polygons

#
# object Line002
#

v  564812.7500 621872.8750 -768934.2500
v  1497732.2500 621872.8750 -1816441.0000
v  1497605.5000 621239.2500 -1816553.7500
v  564595.2500 621239.2500 -768942.5000
v  565407.1250 622336.6875 -768911.6875
v  1498078.7500 622336.6875 -1816132.5000
v  566219.0000 622506.4375 -768880.8750
v  1498551.8750 622506.4375 -1815711.0000
v  567030.8750 622336.6875 -768850.1250
v  1499025.0000 622336.6875 -1815289.5000
v  567625.1875 621872.8750 -768827.5625
v  1499371.3750 621872.8750 -1814981.2500
v  567842.7500 621239.2500 -768819.3125
v  1499498.1250 621239.2500 -1814868.2500
v  567625.1875 620605.6250 -768827.5625
v  1499371.3750 620605.6250 -1814981.2500
v  567030.8750 620141.8125 -768850.1250
v  1499025.0000 620141.8125 -1815289.5000
v  566219.0000 619972.0625 -768880.8750
v  1498551.8750 619972.0625 -1815711.0000
v  565407.1250 620141.8125 -768911.6875
v  1498078.7500 620141.8125 -1816132.5000
v  564812.7500 620605.6250 -768934.2500
v  1497732.2500 620605.6250 -1816441.0000
v  1470401.1250 621872.8750 485776.3125
v  1470263.5000 621239.2500 485875.8125
v  1470777.2500 622336.6875 485504.9375
v  1471291.0000 622506.4375 485134.1875
v  1471804.7500 622336.6875 484763.3125
v  1472180.7500 621872.8750 484491.9375
v  1472318.5000 621239.2500 484392.4375
v  1472180.7500 620605.6250 484491.9375
v  1471804.7500 620141.8125 484763.3125
v  1471291.0000 619972.0625 485134.1875
v  1470777.2500 620141.8125 485504.9375
v  1470401.1250 620605.6250 485776.3125
# 36 vertices

vn -0.6723 0.4353 -0.5988
vn -0.6467 0.5000 -0.5760
vn -0.7468 0.0000 -0.6651
vn -0.7468 -0.0000 -0.6651
vn -0.4922 0.8700 -0.0284
vn -0.3734 0.8660 -0.3325
vn -0.0872 0.9962 -0.0065
vn -0.0000 1.0000 -0.0000
vn 0.3347 0.9421 0.0185
vn 0.3734 0.8660 0.3326
vn 0.6263 0.5447 0.5578
vn 0.6467 0.5000 0.5760
vn 0.7468 -0.0000 0.6651
vn 0.7468 0.0000 0.6651
vn 0.6263 -0.5447 0.5578
vn 0.6467 -0.5000 0.5760
vn 0.3347 -0.9421 0.0185
vn 0.3734 -0.8660 0.3325
vn -0.0872 -0.9962 -0.0065
vn 0.0000 -1.0000 0.0000
vn -0.4922 -0.8700 -0.0284
vn -0.3734 -0.8660 -0.3325
vn -0.6723 -0.4353 -0.5988
vn -0.6467 -0.5000 -0.5760
vn -0.7022 0.5000 0.5068
vn -0.7264 0.4443 0.5243
vn -0.8109 -0.0000 0.5852
vn -0.4054 0.8660 0.2926
vn -0.0000 1.0000 0.0000
vn 0.4054 0.8660 -0.2926
vn 0.7022 0.5000 -0.5068
vn 0.6770 0.5504 -0.4886
vn 0.8109 0.0000 -0.5852
vn 0.7022 -0.5000 -0.5068
vn 0.6770 -0.5504 -0.4886
vn 0.4054 -0.8660 -0.2926
vn -0.0000 -1.0000 0.0000
vn -0.4054 -0.8660 0.2926
vn -0.7022 -0.5000 0.5068
vn -0.7264 -0.4443 0.5243
vn 0.6651 -0.0000 -0.7468
vn 0.6650 -0.0001 -0.7469
vn 0.6651 0.0000 -0.7468
vn 0.6650 0.0001 -0.7469
vn 0.5852 0.0000 0.8109
vn 0.5851 0.0001 0.8110
vn 0.5852 -0.0000 0.8109
vn 0.5853 0.0000 0.8109
vn 0.5851 -0.0001 0.8110
# 49 vertex normals

g Line002
usemtl 02___Default
s 20
f -36//-49 -35//-48 -34//-47 -33//-46 
s 12
f -32//-45 -31//-44 -35//-48 -36//-49 
s 45
f -30//-43 -29//-42 -31//-44 -32//-45 
s 52
f -28//-41 -27//-40 -29//-42 -30//-43 
s 20
f -26//-39 -25//-38 -27//-40 -28//-41 
f -24//-37 -23//-36 -25//-38 -26//-39 
s 4
f -22//-35 -21//-34 -23//-36 -24//-37 
s 12
f -20//-33 -19//-32 -21//-34 -22//-35 
s 61
f -18//-31 -17//-30 -19//-32 -20//-33 
s 52
f -16//-29 -15//-28 -17//-30 -18//-31 
s 20
f -14//-27 -13//-26 -15//-28 -16//-29 
f -33//-46 -34//-47 -13//-26 -14//-27 
s 1
f -12//-25 -36//-24 -33//-23 -11//-23 
s 33
f -10//-22 -32//-45 -36//-24 -12//-25 
s 32
f -9//-21 -30//-43 -32//-45 -10//-22 
s 45
f -8//-20 -28//-41 -30//-43 -9//-21 
s 1
f -7//-19 -26//-18 -28//-41 -8//-20 
f -6//-17 -24//-17 -26//-18 -7//-19 
f -5//-16 -22//-15 -24//-17 -6//-17 
s 49
f -4//-14 -20//-33 -22//-15 -5//-16 
s 48
f -3//-13 -18//-31 -20//-33 -4//-14 
s 61
f -2//-12 -16//-29 -18//-31 -3//-13 
s 1
f -1//-11 -14//-10 -16//-29 -2//-12 
f -11//-23 -33//-23 -14//-10 -1//-11 
s 2
f -15//-9 -13//-8 -34//-7 -17//-7 
f -19//-9 -17//-7 -34//-7 -21//-7 
f -23//-7 -21//-7 -34//-7 -25//-9 
f -27//-7 -25//-9 -34//-7 -29//-7 
f -31//-7 -29//-7 -34//-7 -35//-6 
f -10//-5 -12//-4 -11//-5 
f -9//-5 -10//-5 -11//-5 -8//-5 
f -11//-5 -2//-3 -3//-3 -4//-3 
f -11//-5 -4//-3 -5//-5 -6//-2 
f -11//-5 -6//-2 -7//-3 -8//-5 
f -1//-1 -2//-3 -11//-5 
# 33 polygons - 2 triangles

#
# object Cylinder001
#

v  568851.7500 625412.6250 -770140.5625
v  568800.7500 628433.5625 -777434.8125
v  568825.7500 626952.6875 -777884.1250
v  568851.7500 625412.6250 -778035.8125
v  568757.5625 630994.6250 -775723.3750
v  568777.7500 629798.3750 -776705.2500
v  568728.6875 632705.8750 -773161.9375
v  568741.0000 631976.3750 -774526.9375
v  568718.5625 633306.7500 -770140.5625
v  568721.1250 633155.0625 -771680.8750
v  568728.6875 632705.8750 -767119.1875
v  568721.1250 633155.0625 -768600.2500
v  568757.5625 630994.6250 -764557.7500
v  568741.0000 631976.3750 -765754.1875
v  568800.7500 628433.5625 -762846.3125
v  568777.7500 629798.3750 -763575.8750
v  568851.7500 625412.6250 -762245.3125
v  568825.7500 626952.6875 -762397.0000
v  568902.7500 622391.6875 -762846.3125
v  568877.7500 623872.5625 -762397.0000
v  568945.9375 619830.6250 -764557.7500
v  568925.7500 621026.8750 -763575.8750
v  568974.8125 618119.3750 -767119.1875
v  568962.5000 618848.8750 -765754.1875
v  568984.9375 617518.5000 -770140.5625
v  568982.3750 617670.1875 -768600.3125
v  568974.8125 618119.3750 -773161.9375
v  568982.3750 617670.1875 -771680.8750
v  568945.9375 619830.6250 -775723.3750
v  568962.5000 618848.8750 -774526.9375
v  568902.7500 622391.6875 -777434.8125
v  568925.7500 621026.8750 -776705.2500
v  568877.7500 623872.5625 -777884.1250
v  2716475.5000 663194.0625 -777883.5000
v  2716501.5000 661654.0000 -778035.1875
v  2716450.5000 664675.0000 -777434.1875
v  2716427.5000 666039.7500 -776704.5625
v  2716407.2500 667236.0000 -775722.6875
v  2716390.7500 668217.7500 -774526.3125
v  2716378.5000 668947.2500 -773161.3125
v  2716370.7500 669396.5000 -771680.1875
v  2716368.2500 669548.1250 -770139.9375
v  2716370.7500 669396.5000 -768599.6250
v  2716378.5000 668947.2500 -767118.5625
v  2716390.7500 668217.7500 -765753.5625
v  2716407.2500 667236.0000 -764557.1250
v  2716427.5000 666039.7500 -763575.2500
v  2716450.5000 664675.0000 -762845.6250
v  2716475.5000 663194.0625 -762396.3750
v  2716501.5000 661654.0000 -762244.6250
v  2716527.5000 660113.9375 -762396.3750
v  2716552.5000 658633.0625 -762845.6250
v  2716575.5000 657268.2500 -763575.2500
v  2716595.7500 656072.0000 -764557.1250
v  2716612.2500 655090.2500 -765753.5625
v  2716624.5000 654360.7500 -767118.5625
v  2716632.2500 653911.5625 -768599.6250
v  2716634.7500 653759.8750 -770139.9375
v  2716632.2500 653911.5625 -771680.2500
v  2716624.5000 654360.7500 -773161.3125
v  2716612.2500 655090.2500 -774526.3125
v  2716595.7500 656072.0000 -775722.7500
v  2716575.5000 657268.2500 -776704.6250
v  2716552.5000 658633.0625 -777434.1875
v  2716527.5000 660113.9375 -777883.5000
v  2716501.5000 661654.0000 -770139.9375
# 66 vertices

vn -0.9999 -0.0169 -0.0000
vn -0.0017 0.0980 -0.9952
vn -0.0049 0.2902 -0.9569
vn -0.0080 0.4713 -0.8819
vn -0.0107 0.6343 -0.7730
vn -0.0130 0.7729 -0.6344
vn -0.0149 0.8818 -0.4714
vn -0.0161 0.9568 -0.2903
vn -0.0168 0.9950 -0.0980
vn -0.0168 0.9950 0.0980
vn -0.0161 0.9568 0.2903
vn -0.0149 0.8818 0.4714
vn -0.0130 0.7729 0.6344
vn -0.0107 0.6343 0.7730
vn -0.0080 0.4713 0.8819
vn -0.0049 0.2902 0.9569
vn -0.0017 0.0980 0.9952
vn 0.0017 -0.0980 0.9952
vn 0.0049 -0.2902 0.9569
vn 0.0080 -0.4713 0.8819
vn 0.0107 -0.6343 0.7730
vn 0.0130 -0.7729 0.6344
vn 0.0149 -0.8818 0.4714
vn 0.0161 -0.9568 0.2903
vn 0.0168 -0.9950 0.0980
vn 0.0168 -0.9950 -0.0980
vn 0.0161 -0.9568 -0.2903
vn 0.0149 -0.8818 -0.4714
vn 0.0130 -0.7729 -0.6344
vn 0.0107 -0.6343 -0.7730
vn 0.0080 -0.4713 -0.8819
vn 0.0049 -0.2902 -0.9569
vn 0.0017 -0.0980 -0.9952
vn 0.9999 0.0169 0.0000
# 34 vertex normals

vt 0.5000 0.0000 0.0000
vt 0.8125 0.0000 1.0000
vt 0.7813 0.0000 1.0000
vt 0.7500 0.0000 1.0000
vt 0.8750 0.0000 1.0000
vt 0.8438 0.0000 1.0000
vt 0.9375 0.0000 1.0000
vt 0.9062 0.0000 1.0000
vt 1.0000 0.0000 1.0000
vt 0.9688 0.0000 1.0000
vt 0.0625 0.0000 1.0000
vt 0.0313 0.0000 1.0000
vt -0.0000 0.0000 1.0000
vt 0.1250 0.0000 1.0000
vt 0.0938 0.0000 1.0000
vt 0.1875 0.0000 1.0000
vt 0.1563 0.0000 1.0000
vt 0.2500 0.0000 1.0000
vt 0.2188 0.0000 1.0000
vt 0.3125 0.0000 1.0000
vt 0.2813 0.0000 1.0000
vt 0.3750 0.0000 1.0000
vt 0.3438 0.0000 1.0000
vt 0.4375 0.0000 1.0000
vt 0.4063 0.0000 1.0000
vt 0.5000 0.0000 1.0000
vt 0.4688 0.0000 1.0000
vt 0.5625 0.0000 1.0000
vt 0.5313 0.0000 1.0000
vt 0.6250 0.0000 1.0000
vt 0.5938 0.0000 1.0000
vt 0.6875 0.0000 1.0000
vt 0.6563 0.0000 1.0000
vt 0.7188 0.0000 1.0000
vt 0.7813 1.0000 1.0000
vt 0.7500 1.0000 1.0000
vt 0.8125 1.0000 1.0000
vt 0.8438 1.0000 1.0000
vt 0.8750 1.0000 1.0000
vt 0.9062 1.0000 1.0000
vt 0.9375 1.0000 1.0000
vt 0.9688 1.0000 1.0000
vt 1.0000 1.0000 1.0000
vt 0.0313 1.0000 1.0000
vt -0.0000 1.0000 1.0000
vt 0.0625 1.0000 1.0000
vt 0.0938 1.0000 1.0000
vt 0.1250 1.0000 1.0000
vt 0.1563 1.0000 1.0000
vt 0.1875 1.0000 1.0000
vt 0.2188 1.0000 1.0000
vt 0.2500 1.0000 1.0000
vt 0.2813 1.0000 1.0000
vt 0.3125 1.0000 1.0000
vt 0.3438 1.0000 1.0000
vt 0.3750 1.0000 1.0000
vt 0.4063 1.0000 1.0000
vt 0.4375 1.0000 1.0000
vt 0.4688 1.0000 1.0000
vt 0.5000 1.0000 1.0000
vt 0.5313 1.0000 1.0000
vt 0.5625 1.0000 1.0000
vt 0.5938 1.0000 1.0000
vt 0.6250 1.0000 1.0000
vt 0.6563 1.0000 1.0000
vt 0.6875 1.0000 1.0000
vt 0.7188 1.0000 1.0000
vt 0.5000 1.0000 0.0000
vt 1.0120 1.0000 0.9616
# 69 texture coords

g Cylinder001
usemtl _crayfishdiffuse
s 1
f -66/-69/-34 -65/-68/-34 -64/-67/-34 -63/-66/-34 
f -66/-69/-34 -62/-65/-34 -61/-64/-34 -65/-68/-34 
f -66/-69/-34 -60/-63/-34 -59/-62/-34 -62/-65/-34 
f -66/-69/-34 -58/-61/-34 -57/-60/-34 -60/-63/-34 
f -66/-69/-34 -56/-59/-34 -55/-58/-34 -58/-57/-34 
f -66/-69/-34 -54/-56/-34 -53/-55/-34 -56/-59/-34 
f -66/-69/-34 -52/-54/-34 -51/-53/-34 -54/-56/-34 
f -66/-69/-34 -50/-52/-34 -49/-51/-34 -52/-54/-34 
f -66/-69/-34 -48/-50/-34 -47/-49/-34 -50/-52/-34 
f -66/-69/-34 -46/-48/-34 -45/-47/-34 -48/-50/-34 
f -66/-69/-34 -44/-46/-34 -43/-45/-34 -46/-48/-34 
f -66/-69/-34 -42/-44/-34 -41/-43/-34 -44/-46/-34 
f -66/-69/-34 -40/-42/-34 -39/-41/-34 -42/-44/-34 
f -66/-69/-34 -38/-40/-34 -37/-39/-34 -40/-42/-34 
f -66/-69/-34 -36/-38/-34 -35/-37/-34 -38/-40/-34 
f -66/-69/-34 -63/-66/-34 -34/-36/-34 -36/-38/-34 
s off
f -63/-66/-33 -64/-67/-33 -33/-35/-33 -32/-34/-33 
f -64/-67/-32 -65/-68/-32 -31/-33/-32 -33/-35/-32 
f -65/-68/-31 -61/-64/-31 -30/-32/-31 -31/-33/-31 
f -61/-64/-30 -62/-65/-30 -29/-31/-30 -30/-32/-30 
f -62/-65/-29 -59/-62/-29 -28/-30/-29 -29/-31/-29 
f -59/-62/-28 -60/-63/-28 -27/-29/-28 -28/-30/-28 
f -60/-63/-27 -57/-60/-27 -26/-28/-27 -27/-29/-27 
f -57/-60/-26 -58/-61/-26 -25/-27/-26 -26/-28/-26 
f -58/-57/-25 -55/-58/-25 -24/-26/-25 -25/-25/-25 
f -55/-58/-24 -56/-59/-24 -23/-24/-24 -24/-26/-24 
f -56/-59/-23 -53/-55/-23 -22/-23/-23 -23/-24/-23 
f -53/-55/-22 -54/-56/-22 -21/-22/-22 -22/-23/-22 
f -54/-56/-21 -51/-53/-21 -20/-21/-21 -21/-22/-21 
f -51/-53/-20 -52/-54/-20 -19/-20/-20 -20/-21/-20 
f -52/-54/-19 -49/-51/-19 -18/-19/-19 -19/-20/-19 
f -49/-51/-18 -50/-52/-18 -17/-18/-18 -18/-19/-18 
f -50/-52/-17 -47/-49/-17 -16/-17/-17 -17/-18/-17 
f -47/-49/-16 -48/-50/-16 -15/-16/-16 -16/-17/-16 
f -48/-50/-15 -45/-47/-15 -14/-15/-15 -15/-16/-15 
f -45/-47/-14 -46/-48/-14 -13/-14/-14 -14/-15/-14 
f -46/-48/-13 -43/-45/-13 -12/-13/-13 -13/-14/-13 
f -43/-45/-12 -44/-46/-12 -11/-12/-12 -12/-13/-12 
f -44/-46/-11 -41/-43/-11 -10/-11/-11 -11/-12/-11 
f -41/-43/-10 -42/-44/-10 -9/-10/-10 -10/-11/-10 
f -42/-44/-9 -39/-41/-9 -8/-9/-9 -9/-10/-9 
f -39/-41/-8 -40/-42/-8 -7/-8/-8 -8/-9/-8 
f -40/-42/-7 -37/-39/-7 -6/-7/-7 -7/-8/-7 
f -37/-39/-6 -38/-40/-6 -5/-6/-6 -6/-7/-6 
f -38/-40/-5 -35/-37/-5 -4/-5/-5 -5/-6/-5 
f -35/-37/-4 -36/-38/-4 -3/-4/-4 -4/-5/-4 
f -36/-38/-3 -34/-36/-3 -2/-3/-3 -3/-4/-3 
f -34/-36/-2 -63/-66/-2 -32/-34/-2 -2/-3/-2 
s 1
f -1/-2/-1 -2/-3/-1 -32/-34/-1 -33/-35/-1 
f -1/-2/-1 -33/-35/-1 -31/-33/-1 -30/-32/-1 
f -1/-2/-1 -30/-32/-1 -29/-31/-1 -28/-30/-1 
f -1/-2/-1 -28/-30/-1 -27/-29/-1 -26/-28/-1 
f -1/-2/-1 -26/-28/-1 -25/-27/-1 -24/-1/-1 
f -1/-2/-1 -24/-26/-1 -23/-24/-1 -22/-23/-1 
f -1/-2/-1 -22/-23/-1 -21/-22/-1 -20/-21/-1 
f -1/-2/-1 -20/-21/-1 -19/-20/-1 -18/-19/-1 
f -1/-2/-1 -18/-19/-1 -17/-18/-1 -16/-17/-1 
f -1/-2/-1 -16/-17/-1 -15/-16/-1 -14/-15/-1 
f -1/-2/-1 -14/-15/-1 -13/-14/-1 -12/-13/-1 
f -1/-2/-1 -12/-13/-1 -11/-12/-1 -10/-11/-1 
f -1/-2/-1 -10/-11/-1 -9/-10/-1 -8/-9/-1 
f -1/-2/-1 -8/-9/-1 -7/-8/-1 -6/-7/-1 
f -1/-2/-1 -6/-7/-1 -5/-6/-1 -4/-5/-1 
f -1/-2/-1 -4/-5/-1 -3/-4/-1 -2/-3/-1 
# 64 polygons

#
# object Box002
#

v  2872404.7500 654142.6875 -768510.1250
v  2703874.2500 651298.8125 -712241.2500
v  2703874.2500 651298.8125 -824818.6875
v  2872404.7500 654142.6875 -768549.8750
v  2872087.5000 672940.2500 -768510.1250
v  2872087.5000 672940.2500 -768549.8750
v  2703557.0000 670096.3125 -824818.6875
v  2703557.0000 670096.3125 -712241.2500
# 8 vertices

vn 0.0169 -0.9999 -0.0000
vn -0.0169 0.9999 0.0000
vn 0.9999 0.0169 -0.0000
vn 0.3615 0.0061 -0.9324
vn -0.9999 -0.0169 0.0000
vn 0.3615 0.0061 0.9324
# 6 vertex normals

vt 1.0000 0.0000 0.0000
vt 1.0000 1.0000 0.0000
vt 0.0000 1.0000 0.0000
vt 0.0000 0.0000 0.0000
# 4 texture coords

g Box002
usemtl 02___Default
s 2
f -8/-4/-6 -7/-3/-6 -6/-2/-6 -5/-1/-6 
s 4
f -4/-1/-5 -3/-4/-5 -2/-3/-5 -1/-2/-5 
s 8
f -8/-1/-4 -5/-4/-4 -3/-3/-4 -4/-2/-4 
s 16
f -5/-1/-3 -6/-4/-3 -2/-3/-3 -3/-2/-3 
s 32
f -6/-1/-2 -7/-4/-2 -1/-3/-2 -2/-2/-2 
s 64
f -7/-1/-1 -8/-4/-1 -4/-3/-1 -1/-2/-1 
# 6 polygons

#
# object Box004
#

v  769009.5000 620867.5000 -777141.3750
v  569855.8750 617506.7500 -777141.3750
v  514965.5625 616580.5000 -823674.0000
v  714119.1875 619941.1875 -823674.0000
v  768892.2500 627815.6250 -777141.3750
v  714001.9375 626889.3750 -823674.0000
v  514848.3125 623528.6875 -823674.0000
v  569738.6250 624454.9375 -777141.3750
# 8 vertices

vn 0.0169 -0.9999 -0.0000
vn -0.0169 0.9999 0.0000
vn 0.8198 0.0138 -0.5725
vn -0.0000 0.0000 -1.0000
vn -0.8198 -0.0138 0.5725
vn 0.0000 0.0000 1.0000
# 6 vertex normals

vt 1.0000 0.0000 0.0000
vt 1.0000 1.0000 0.0000
vt 0.0000 1.0000 0.0000
vt 0.0000 0.0000 0.0000
# 4 texture coords

g Box004
usemtl _crayfishdiffuse
s 2
f -8/-4/-6 -7/-3/-6 -6/-2/-6 -5/-1/-6 
s 4
f -4/-1/-5 -3/-4/-5 -2/-3/-5 -1/-2/-5 
s 8
f -8/-1/-4 -5/-4/-4 -3/-3/-4 -4/-2/-4 
s 16
f -5/-1/-3 -6/-4/-3 -2/-3/-3 -3/-2/-3 
s 32
f -6/-1/-2 -7/-4/-2 -1/-3/-2 -2/-2/-2 
s 64
f -7/-1/-1 -8/-4/-1 -4/-3/-1 -1/-2/-1 
# 6 polygons

#
# object Box005
#

v  514966.4375 616580.5625 -717205.7500
v  714120.0625 619941.3125 -717205.7500
v  769010.3750 620867.5625 -763738.3750
v  569856.6875 617506.8750 -763738.3750
v  514849.1875 623528.7500 -717205.7500
v  569739.4375 624455.0000 -763738.3750
v  768893.1250 627815.6875 -763738.3750
v  714002.8125 626889.4375 -717205.7500
# 8 vertices

vn 0.0169 -0.9999 -0.0000
vn -0.0169 0.9999 0.0000
vn -0.8198 -0.0138 -0.5725
vn -0.0000 0.0000 -1.0000
vn 0.8198 0.0138 0.5725
vn 0.0000 0.0000 1.0000
# 6 vertex normals

vt 1.0000 0.0000 0.0000
vt 1.0000 1.0000 0.0000
vt 0.0000 1.0000 0.0000
vt 0.0000 0.0000 0.0000
# 4 texture coords

g Box005
usemtl _crayfishdiffuse
s 2
f -5/-1/-6 -6/-2/-6 -7/-3/-6 -8/-4/-6 
s 4
f -1/-2/-5 -2/-3/-5 -3/-4/-5 -4/-1/-5 
s 8
f -4/-2/-4 -3/-3/-4 -5/-4/-4 -8/-1/-4 
s 16
f -3/-2/-3 -2/-3/-3 -6/-4/-3 -5/-1/-3 
s 32
f -2/-2/-2 -1/-3/-2 -7/-4/-2 -6/-1/-2 
s 64
f -1/-2/-1 -4/-3/-1 -8/-4/-1 -7/-1/-1 
# 6 polygons

